<svg aria-hidden="true" style="position: absolute; width: 0; height: 0; overflow: hidden;" version="1.1" xmlns="http://www.w3.org/2000/svg" xmlns:xlink="http://www.w3.org/1999/xlink">
<defs>
<symbol id="icon-back" viewBox="0 0 32 32">
<path fill="#ffb568" style="fill: var(--color1, #ffb568)" d="M18.562 27.429l-9.813-9.813h21.911v-4.571h-21.911l9.813-9.813-3.232-3.232-15.33 15.33 15.33 15.33 3.232-3.232z"></path>
</symbol>
<symbol id="icon-basket" viewBox="0 0 28 32">
<path d="M3.137 31.373h21.961c1.73 0 3.137-1.407 3.137-3.137v-17.255c0-0.416-0.165-0.815-0.459-1.109s-0.693-0.459-1.109-0.459h-4.706v-1.569c0-4.325-3.518-7.843-7.843-7.843s-7.843 3.518-7.843 7.843v1.569h-4.706c-0.416 0-0.815 0.165-1.109 0.459s-0.459 0.693-0.459 1.109v17.255c0 1.73 1.407 3.137 3.137 3.137zM9.412 7.843c0-2.595 2.111-4.706 4.706-4.706s4.706 2.111 4.706 4.706v1.569h-9.412v-1.569zM3.137 12.549h3.137v3.137h3.137v-3.137h9.412v3.137h3.137v-3.137h3.137l0.003 15.686h-21.964v-15.686z"></path>
</symbol>
<symbol id="icon-burger-menu" viewBox="0 0 32 32">
<path d="M12.444 0h-10.667c-0.472 0-0.924 0.187-1.257 0.521s-0.521 0.786-0.521 1.257v10.667c0 0.472 0.187 0.924 0.521 1.257s0.786 0.521 1.257 0.521h10.667c0.472 0 0.924-0.187 1.257-0.521s0.521-0.786 0.521-1.257v-10.667c0-0.472-0.187-0.924-0.521-1.257s-0.786-0.521-1.257-0.521zM10.667 10.667h-7.111v-7.111h7.111v7.111zM19.556 14.222h10.667c0.471 0 0.924-0.187 1.257-0.521s0.521-0.786 0.521-1.257v-10.667c0-0.472-0.187-0.924-0.521-1.257s-0.785-0.521-1.257-0.521h-10.667c-0.471 0-0.924 0.187-1.257 0.521s-0.521 0.786-0.521 1.257v10.667c0 0.472 0.187 0.924 0.521 1.257s0.786 0.521 1.257 0.521zM21.333 3.556h7.111v7.111h-7.111v-7.111zM0 30.222c0 0.471 0.187 0.924 0.521 1.257s0.786 0.521 1.257 0.521h10.667c0.472 0 0.924-0.187 1.257-0.521s0.521-0.785 0.521-1.257v-10.667c0-0.471-0.187-0.924-0.521-1.257s-0.786-0.521-1.257-0.521h-10.667c-0.472 0-0.924 0.187-1.257 0.521s-0.521 0.786-0.521 1.257v10.667zM3.556 21.333h7.111v7.111h-7.111v-7.111zM17.778 30.222c0 0.471 0.187 0.924 0.521 1.257s0.786 0.521 1.257 0.521h10.667c0.471 0 0.924-0.187 1.257-0.521s0.521-0.785 0.521-1.257v-10.667c0-0.471-0.187-0.924-0.521-1.257s-0.785-0.521-1.257-0.521h-10.667c-0.471 0-0.924 0.187-1.257 0.521s-0.521 0.786-0.521 1.257v10.667zM21.333 21.333h7.111v7.111h-7.111v-7.111z"></path>
</symbol>
<symbol id="icon-dark" viewBox="0 0 32 32">
<path d="M28.901 17.326c-1.063 0.282-2.158 0.425-3.258 0.425-3.349 0-6.494-1.302-8.856-3.664-1.551-1.56-2.667-3.5-3.235-5.625s-0.569-4.363-0.003-6.489c0.071-0.266 0.070-0.546-0.001-0.811s-0.212-0.508-0.406-0.702c-0.195-0.194-0.437-0.334-0.703-0.405s-0.545-0.071-0.811 0c-2.662 0.709-5.090 2.106-7.042 4.050-6.114 6.115-6.114 16.067 0 22.185 1.453 1.462 3.182 2.62 5.086 3.409s3.946 1.192 6.007 1.187c2.061 0.006 4.102-0.397 6.005-1.186s3.632-1.947 5.085-3.409c1.946-1.952 3.343-4.382 4.052-7.045 0.071-0.266 0.070-0.545-0.002-0.811s-0.212-0.507-0.406-0.702c-0.194-0.194-0.437-0.334-0.702-0.406s-0.545-0.072-0.811-0.002zM24.553 24.072c-1.162 1.169-2.545 2.095-4.068 2.726s-3.156 0.953-4.804 0.949c-1.649 0.004-3.282-0.319-4.806-0.95s-2.907-1.558-4.069-2.727c-4.891-4.893-4.891-12.855 0-17.747 0.945-0.944 2.036-1.73 3.231-2.326-0.175 2.257 0.14 4.526 0.922 6.651s2.014 4.055 3.611 5.66c1.601 1.602 3.531 2.837 5.657 3.62s4.396 1.095 6.654 0.914c-0.6 1.193-1.386 2.283-2.328 3.23z"></path>
</symbol>
<symbol id="icon-facebook" viewBox="0 0 17 32">
<path d="M10.782 31.995v-14.571h4.916l0.731-5.705h-5.646v-3.634c0-1.646 0.459-2.773 2.821-2.773h2.994v-5.086c-1.457-0.156-2.921-0.231-4.386-0.226-4.345 0-7.328 2.652-7.328 7.522v4.187h-4.884v5.705h4.894v14.581h5.888z"></path>
</symbol>
<symbol id="icon-light" viewBox="0 0 32 32">
<path d="M7.835 15.686c0 4.331 3.523 7.854 7.854 7.854s7.854-3.523 7.854-7.854c0-4.331-3.523-7.854-7.854-7.854s-7.854 3.523-7.854 7.854zM15.689 10.969c2.601 0 4.717 2.116 4.717 4.717s-2.116 4.717-4.717 4.717c-2.601 0-4.717-2.116-4.717-4.717s2.116-4.717 4.717-4.717zM14.118 26.667h3.137v4.706h-3.137v-4.706zM14.118 0h3.137v4.706h-3.137v-4.706zM0 14.118h4.706v3.137h-4.706v-3.137zM26.667 14.118h4.706v3.137h-4.706v-3.137zM3.484 25.667l3.326-3.329 2.22 2.218-3.325 3.329-2.22-2.218zM22.34 6.814l3.329-3.329 2.218 2.218-3.329 3.329-2.218-2.218zM6.814 9.034l-3.329-3.329 2.22-2.218 3.325 3.329-2.216 2.218zM27.887 25.669l-2.218 2.218-3.329-3.329 2.218-2.218 3.329 3.329z"></path>
</symbol>
<symbol id="icon-next" viewBox="0 0 32 32">
<path fill="#ffb568" style="fill: var(--color1, #ffb568)" d="M12.098 27.429l3.232 3.232 15.33-15.33-15.33-15.33-3.232 3.232 9.813 9.813h-21.911v4.571h21.911l-9.813 9.813z"></path>
</symbol>
<symbol id="icon-qoutes" viewBox="0 0 45 32">
<path fill="#ffb568" style="fill: var(--color1, #ffb568)" d="M9.726 12.736c-0.476 0-0.932 0.073-1.387 0.139 0.147-0.495 0.299-0.998 0.542-1.451 0.243-0.657 0.623-1.227 1.001-1.801 0.316-0.621 0.873-1.041 1.282-1.572 0.429-0.516 1.013-0.86 1.476-1.289 0.454-0.448 1.050-0.672 1.523-0.988 0.495-0.284 0.926-0.597 1.387-0.747l1.15-0.474 1.011-0.42-1.035-4.134-1.274 0.307c-0.407 0.102-0.905 0.222-1.47 0.365-0.578 0.107-1.195 0.399-1.882 0.666-0.678 0.303-1.463 0.508-2.193 0.994-0.734 0.465-1.581 0.853-2.327 1.476-0.723 0.642-1.596 1.199-2.24 2.016-0.704 0.764-1.399 1.566-1.939 2.479-0.625 0.87-1.050 1.826-1.498 2.771-0.405 0.945-0.732 1.911-0.998 2.85-0.506 1.882-0.732 3.669-0.819 5.199-0.073 1.532-0.030 2.805 0.060 3.727 0.032 0.435 0.092 0.858 0.134 1.15l0.053 0.358 0.055-0.013c0.379 1.772 1.253 3.401 2.519 4.698s2.874 2.208 4.637 2.63c1.763 0.421 3.609 0.335 5.325-0.25s3.231-1.642 4.371-3.052 1.857-3.113 2.069-4.913c0.212-1.8-0.090-3.624-0.871-5.259s-2.009-3.017-3.542-3.984c-1.533-0.967-3.309-1.48-5.121-1.48zM33.193 12.736c-0.476 0-0.932 0.073-1.387 0.139 0.147-0.495 0.299-0.998 0.542-1.451 0.243-0.657 0.623-1.227 1.001-1.801 0.316-0.621 0.873-1.041 1.282-1.572 0.429-0.516 1.013-0.86 1.476-1.289 0.454-0.448 1.050-0.672 1.523-0.988 0.495-0.284 0.926-0.597 1.387-0.747l1.15-0.474 1.011-0.42-1.035-4.134-1.274 0.307c-0.407 0.102-0.905 0.222-1.47 0.365-0.578 0.107-1.195 0.399-1.882 0.666-0.676 0.305-1.463 0.508-2.193 0.996-0.734 0.465-1.581 0.853-2.327 1.476-0.723 0.642-1.596 1.199-2.24 2.014-0.704 0.764-1.399 1.566-1.939 2.479-0.625 0.87-1.050 1.826-1.498 2.771-0.405 0.945-0.732 1.911-0.998 2.85-0.506 1.882-0.732 3.669-0.819 5.199-0.073 1.532-0.030 2.805 0.060 3.727 0.032 0.435 0.092 0.858 0.134 1.15l0.053 0.358 0.055-0.013c0.38 1.772 1.253 3.401 2.519 4.698s2.874 2.208 4.637 2.63c1.763 0.421 3.609 0.335 5.325-0.25s3.231-1.642 4.371-3.052 1.857-3.113 2.069-4.913c0.212-1.8-0.090-3.624-0.871-5.259s-2.009-3.017-3.542-3.984c-1.533-0.967-3.309-1.48-5.121-1.48z"></path>
</symbol>
<symbol id="icon-twitter" viewBox="0 0 39 32">
<path d="M33.587 7.577c0.025 0.333 0.025 0.665 0.025 0.996 0 10.143-7.72 21.831-21.829 21.831-4.347 0-8.385-1.259-11.783-3.446 0.617 0.070 1.211 0.095 1.853 0.095 3.453 0.008 6.809-1.146 9.526-3.278-1.601-0.029-3.153-0.557-4.44-1.511s-2.243-2.285-2.736-3.809c0.474 0.070 0.95 0.118 1.449 0.118 0.688 0 1.379-0.095 2.021-0.261-1.738-0.351-3.3-1.293-4.422-2.665s-1.733-3.091-1.731-4.864v-0.095c1.023 0.57 2.21 0.926 3.467 0.973-1.053-0.7-1.917-1.649-2.514-2.764s-0.909-2.36-0.907-3.624c0-1.425 0.379-2.731 1.044-3.87 1.928 2.371 4.332 4.312 7.058 5.695s5.711 2.178 8.763 2.334c-0.118-0.571-0.191-1.164-0.191-1.758-0-1.008 0.198-2.006 0.583-2.937s0.951-1.777 1.663-2.49c0.713-0.713 1.559-1.278 2.49-1.663s1.929-0.584 2.937-0.583c2.21 0 4.204 0.926 5.606 2.423 1.718-0.332 3.365-0.959 4.869-1.853-0.573 1.773-1.772 3.276-3.373 4.229 1.523-0.174 3.012-0.574 4.417-1.189-1.049 1.53-2.349 2.871-3.846 3.968z"></path>
</symbol>
<symbol id="icon-instagram" viewBox="0 0 32 32">
<path d="M16 2.881c4.275 0 4.781 0.019 6.462 0.094 1.563 0.069 2.406 0.331 2.969 0.55 0.744 0.288 1.281 0.638 1.837 1.194 0.563 0.563 0.906 1.094 1.2 1.838 0.219 0.563 0.481 1.412 0.55 2.969 0.075 1.688 0.094 2.194 0.094 6.463s-0.019 4.781-0.094 6.463c-0.069 1.563-0.331 2.406-0.55 2.969-0.288 0.744-0.637 1.281-1.194 1.837-0.563 0.563-1.094 0.906-1.837 1.2-0.563 0.219-1.413 0.481-2.969 0.55-1.688 0.075-2.194 0.094-6.463 0.094s-4.781-0.019-6.463-0.094c-1.563-0.069-2.406-0.331-2.969-0.55-0.744-0.288-1.281-0.637-1.838-1.194-0.563-0.563-0.906-1.094-1.2-1.837-0.219-0.563-0.481-1.413-0.55-2.969-0.075-1.688-0.094-2.194-0.094-6.463s0.019-4.781 0.094-6.463c0.069-1.563 0.331-2.406 0.55-2.969 0.288-0.744 0.638-1.281 1.194-1.838 0.563-0.563 1.094-0.906 1.838-1.2 0.563-0.219 1.412-0.481 2.969-0.55 1.681-0.075 2.188-0.094 6.463-0.094zM16 0c-4.344 0-4.887 0.019-6.594 0.094-1.7 0.075-2.869 0.35-3.881 0.744-1.056 0.412-1.95 0.956-2.837 1.85-0.894 0.888-1.438 1.781-1.85 2.831-0.394 1.019-0.669 2.181-0.744 3.881-0.075 1.713-0.094 2.256-0.094 6.6s0.019 4.887 0.094 6.594c0.075 1.7 0.35 2.869 0.744 3.881 0.413 1.056 0.956 1.95 1.85 2.837 0.887 0.887 1.781 1.438 2.831 1.844 1.019 0.394 2.181 0.669 3.881 0.744 1.706 0.075 2.25 0.094 6.594 0.094s4.888-0.019 6.594-0.094c1.7-0.075 2.869-0.35 3.881-0.744 1.050-0.406 1.944-0.956 2.831-1.844s1.438-1.781 1.844-2.831c0.394-1.019 0.669-2.181 0.744-3.881 0.075-1.706 0.094-2.25 0.094-6.594s-0.019-4.887-0.094-6.594c-0.075-1.7-0.35-2.869-0.744-3.881-0.394-1.063-0.938-1.956-1.831-2.844-0.887-0.887-1.781-1.438-2.831-1.844-1.019-0.394-2.181-0.669-3.881-0.744-1.712-0.081-2.256-0.1-6.6-0.1v0z"></path>
<path d="M16 7.781c-4.537 0-8.219 3.681-8.219 8.219s3.681 8.219 8.219 8.219 8.219-3.681 8.219-8.219c0-4.537-3.681-8.219-8.219-8.219zM16 21.331c-2.944 0-5.331-2.387-5.331-5.331s2.387-5.331 5.331-5.331c2.944 0 5.331 2.387 5.331 5.331s-2.387 5.331-5.331 5.331z"></path>
<path d="M26.462 7.456c0 1.060-0.859 1.919-1.919 1.919s-1.919-0.859-1.919-1.919c0-1.060 0.859-1.919 1.919-1.919s1.919 0.859 1.919 1.919z"></path>
</symbol>
<symbol id="icon-close" viewBox="0 0 32 32">
<path d="M26.397 0l-11.315 11.312-11.312-11.312-3.771 3.771 11.312 11.312-11.312 11.312 3.771 3.771 11.312-11.312 11.315 11.312 3.771-3.771-11.312-11.312 11.312-11.312-3.771-3.771z"></path>
</symbol>
</defs>
</svg>
